<svg width="24" height="24" viewBox="0 0 24 24" fill="none" xmlns="http://www.w3.org/2000/svg">
<g id="symbol / Bitcoin">
<rect width="24" height="24" rx="12" fill="url(#paint0_linear_1436_15767)"/>
<path id="Vector" d="M17.9696 10.4284C18.2148 8.74875 16.9461 7.84716 15.2117 7.24199L15.7755 4.96333L14.3965 4.61752L13.8511 6.83443L12.7479 6.57507L13.2995 4.34581L11.9266 4L11.3627 6.27248L10.4802 6.0687L10.4863 6.06252L8.58637 5.58086L8.21864 7.06291C8.21864 7.06291 9.24216 7.29757 9.21765 7.31609C9.77537 7.45195 9.87956 7.82246 9.86118 8.11887L9.21765 10.7125L9.36474 10.7619L9.21765 10.7248L8.3167 14.3558C8.24929 14.5288 8.07768 14.7881 7.68543 14.6893C7.69769 14.7078 6.68643 14.4361 6.68643 14.4361L6 16.0232L7.79575 16.4739L8.77637 16.7271L8.20639 19.0305L9.57925 19.3763L10.1431 17.0976L11.2402 17.3879L10.6763 19.6542L12.0553 20L12.6253 17.6966C14.9665 18.1474 16.7316 17.9684 17.4732 15.8256C18.0738 14.1088 17.4487 13.1146 16.2107 12.4662C17.1116 12.2563 17.7858 11.6635 17.9696 10.4284ZM14.8255 14.8746C14.3965 16.5913 11.5221 15.665 10.5905 15.4303L11.3444 12.3798C12.2759 12.6144 15.2668 13.0776 14.8255 14.8746ZM15.2484 10.4037C14.8623 11.9722 12.4659 11.1756 11.6937 10.9842L12.374 8.2115C13.1524 8.40911 15.6529 8.77345 15.2484 10.4037Z" fill="white"/>
</g>
<defs>
<linearGradient id="paint0_linear_1436_15767" x1="4.47035e-07" y1="24" x2="25.4573" y2="1.66075" gradientUnits="userSpaceOnUse">
<stop stop-color="#FF817D"/>
<stop offset="0.463542" stop-color="#8233FF"/>
<stop offset="0.630208" stop-color="#3857FD"/>
<stop offset="1" stop-color="#22DEF1"/>
</linearGradient>
</defs>
</svg>
