<svg width="175" height="57" viewBox="0 0 175 57" fill="none" xmlns="http://www.w3.org/2000/svg">
<path d="M45.0725 11.8262H42.7613C40.9752 11.8262 39.5273 13.2741 39.5273 15.0601V22.0061C39.5273 23.7922 40.9752 25.2401 42.7613 25.2401H45.0725C46.8585 25.2401 48.3064 23.7922 48.3064 22.0061V15.0601C48.3064 13.2741 46.8585 11.8262 45.0725 11.8262Z" fill="url(#paint0_linear_203_12767)"/>
<path d="M29.6213 11.8262H27.3101C25.5241 11.8262 24.0762 13.2741 24.0762 15.0601V22.0061C24.0762 23.7922 25.5241 25.2401 27.3101 25.2401H29.6213C31.4074 25.2401 32.8553 23.7922 32.8553 22.0061V15.0601C32.8553 13.2741 31.4074 11.8262 29.6213 11.8262Z" fill="url(#paint1_linear_203_12767)"/>
<path d="M8.84998 33.5701C6.75081 30.6645 5.48716 27.1146 5.44975 23.2696C5.3583 13.3058 13.6926 5.15439 23.6564 5.15439H25.7722C27.1439 5.15439 28.3452 4.11936 28.4325 2.74762C28.5281 1.24703 27.3393 0 25.8595 0H23.7229C10.9492 0 0.345233 10.2298 0.291195 23.0036C0.270411 28.3201 2.05782 33.2209 5.06732 37.1366C5.271 37.4026 5.6659 37.4234 5.90699 37.1865L8.79595 34.2975C8.99131 34.1021 9.0121 33.7945 8.84998 33.5659V33.5701Z" fill="url(#paint2_linear_203_12767)"/>
<path d="M46.4646 5.15439H48.6719C58.6274 5.15439 66.9658 13.3017 66.8785 23.2571C66.8453 27.1021 65.5858 30.6479 63.4866 33.5576C63.3245 33.7821 63.3453 34.0897 63.5407 34.2892L66.4296 37.174C66.6665 37.4109 67.0614 37.3901 67.2693 37.1241C70.2746 33.2084 72.0579 28.3076 72.0371 22.9952C71.9789 10.2215 61.3791 0 48.6054 0H46.5603C45.1885 0 43.9872 1.03504 43.8999 2.40677C43.8043 3.90736 44.9932 5.15439 46.473 5.15439H46.4646Z" fill="url(#paint3_linear_203_12767)"/>
<path d="M58.1115 43.4339L54.9856 40.3081C54.836 40.1584 54.6157 40.1085 54.4162 40.175C52.6869 40.732 50.8496 41.048 48.9375 41.048C43.5753 41.048 40.2956 38.7035 38.6121 33.6655C38.2588 32.6139 37.2778 31.9072 36.1679 31.9072C35.0581 31.9072 34.0771 32.6139 33.7238 33.6655C32.0403 38.6994 28.7606 41.048 23.3983 41.048C21.4904 41.048 19.6572 40.7362 17.9322 40.1792C17.7327 40.1127 17.5124 40.1667 17.3627 40.3122L14.2368 43.4381C13.9542 43.7208 14.0498 44.1988 14.4156 44.3526C17.1798 45.529 20.2101 46.1982 23.3983 46.1982C28.9934 46.1982 33.3247 44.1406 36.1679 40.1875C39.0112 44.1406 43.3467 46.1982 48.9375 46.1982C52.1341 46.1982 55.1685 45.529 57.9369 44.3443C58.3027 44.1863 58.3983 43.7083 58.1157 43.4298L58.1115 43.4339Z" fill="url(#paint4_linear_203_12767)"/>
<path d="M17.8991 48.1647C18.6972 48.3435 20.8421 48.7716 23.1574 48.7758C23.5315 48.7758 23.7144 49.2289 23.4484 49.4949L19.5285 53.4106C19.5285 53.4106 17.1259 55.809 13.4721 55.888C13.4721 55.888 9.51488 56.0876 6.7922 53.3191C6.7922 53.3191 3.95312 50.8001 3.95312 46.7889C3.95312 46.7889 4.03626 42.7194 6.44719 40.3001C8.85811 37.8809 13.6717 33.0757 13.6717 33.0757C13.6717 33.0757 17.155 29.9041 21.3991 30.7188C25.4686 31.5003 27.5095 33.7033 28.557 36.5133C28.6443 36.7461 28.5612 37.008 28.3617 37.1535C27.8088 37.5567 26.5202 38.2841 24.2548 38.4296C24.0303 38.4421 23.8183 38.3298 23.7186 38.1303C23.4442 37.5775 22.7376 36.4551 21.3575 35.9688C19.4911 35.3079 17.8658 36.1891 17.1093 36.9207C16.3486 37.6523 10.3171 43.7045 10.3171 43.7045C10.3171 43.7045 8.39256 45.5252 9.41096 48.2354C10.6455 50.929 13.0357 50.8251 13.9876 50.663C13.9876 50.663 15.484 50.5549 17.3546 48.3435C17.4876 48.1855 17.6996 48.119 17.8991 48.1647Z" fill="url(#paint5_linear_203_12767)"/>
<path d="M54.4825 48.1647C53.6802 48.3435 51.5395 48.7716 49.2242 48.7758C48.8501 48.7758 48.6672 49.2289 48.9332 49.4949L52.853 53.4106C52.853 53.4106 55.2557 55.809 58.9095 55.888C58.9095 55.888 62.8667 56.0876 65.5894 53.3191C65.5894 53.3191 68.4285 50.8001 68.4285 46.7889C68.4285 46.7889 68.3453 42.7194 65.9344 40.3001C63.5235 37.8809 58.7099 33.0757 58.7099 33.0757C58.7099 33.0757 55.2266 29.9041 50.9825 30.7188C46.913 31.5003 44.872 33.7033 43.8245 36.5133C43.7372 36.7461 43.8204 37.008 44.0199 37.1535C44.5728 37.5567 45.8572 38.2841 48.1226 38.4296C48.3471 38.4421 48.5633 38.3298 48.6672 38.1261C48.9415 37.5733 49.6482 36.4551 51.0241 35.9688C52.8905 35.3079 54.5158 36.1891 55.2723 36.9207C56.033 37.6523 62.0644 43.7045 62.0644 43.7045C62.0644 43.7045 63.989 45.5252 62.9706 48.2354C61.7361 50.929 59.3459 50.8251 58.394 50.663C58.394 50.663 56.8976 50.5549 55.027 48.3435C54.894 48.1855 54.682 48.119 54.4825 48.1647Z" fill="url(#paint6_linear_203_12767)"/>
<path d="M89.5625 12.8484H96.0512C96.4752 12.8484 96.8202 12.5034 96.8202 12.0794V10.7451C96.8202 10.3211 96.4752 9.97607 96.0512 9.97607H89.5625C85.6302 9.97607 82.3755 13.1726 82.3048 17.1049C82.2715 19.0171 83.0114 20.8419 84.3832 22.2427C85.7882 23.6726 87.7335 24.4915 89.7205 24.4915H96.0471C96.4711 24.4915 96.8161 24.1465 96.8161 23.7225V22.3882C96.8161 21.9642 96.4711 21.6192 96.0471 21.6192H89.6914C87.2763 21.6192 85.2935 19.7902 85.1771 17.4583C85.1148 16.2445 85.5429 15.0931 86.3826 14.2118C87.2222 13.3306 88.3487 12.8442 89.5625 12.8442V12.8484Z" fill="#070123"/>
<path d="M117.313 9.98047H115.979C115.555 9.98047 115.21 10.3255 115.21 10.7495V14.9935C115.21 15.0642 115.151 15.1266 115.081 15.1266H106.568C106.497 15.1266 106.439 15.0684 106.439 14.9935V10.7495C106.439 10.3255 106.094 9.98047 105.67 9.98047H104.335C103.911 9.98047 103.566 10.3255 103.566 10.7495V23.7269C103.566 24.1509 103.911 24.4959 104.335 24.4959H105.67C106.094 24.4959 106.439 24.1509 106.439 23.7269V18.1277C106.439 18.0571 106.497 17.9989 106.568 17.9989H115.081C115.151 17.9989 115.21 18.0571 115.21 18.1277V23.7269C115.21 24.1509 115.555 24.4959 115.979 24.4959H117.313C117.737 24.4959 118.082 24.1509 118.082 23.7269V10.7495C118.082 10.3255 117.737 9.98047 117.313 9.98047Z" fill="#070123"/>
<path d="M139.157 23.3735L132.643 10.5956C132.564 10.4377 132.402 10.3379 132.227 10.3379C132.053 10.3379 131.891 10.4377 131.812 10.5956L125.294 23.3735C125.169 23.6146 125.182 23.8931 125.323 24.1217C125.464 24.3504 125.71 24.4917 125.98 24.4917H127.468C127.759 24.4917 128.021 24.3296 128.15 24.0719L132.111 16.3153C132.144 16.253 132.202 16.2447 132.227 16.2447C132.252 16.2447 132.31 16.253 132.344 16.3153L136.305 24.0719C136.438 24.3296 136.7 24.4917 136.987 24.4917H138.475C138.745 24.4917 138.99 24.3545 139.132 24.1217C139.273 23.8931 139.281 23.6105 139.161 23.3735H139.157Z" fill="#070123"/>
<path d="M146.856 9.98047H148.19C148.614 9.98047 148.959 10.3255 148.959 10.7495V23.7269C148.959 24.1509 148.614 24.4959 148.19 24.4959H146.86C146.436 24.4959 146.091 24.1509 146.091 23.7269V10.7495C146.091 10.3255 146.436 9.98047 146.86 9.98047H146.856Z" fill="#070123"/>
<path d="M169.456 9.99684L168.121 9.98438H168.117C167.693 9.98438 167.348 10.3294 167.348 10.7534V18.5723C167.348 18.6554 167.282 18.7053 167.215 18.7053C167.186 18.7053 167.161 18.697 167.136 18.6762L158.507 12.0212L156.457 10.4458C156.374 10.3834 156.275 10.346 156.175 10.346C155.917 10.346 155.705 10.558 155.705 10.8157V23.7433C155.705 24.1673 156.05 24.5123 156.474 24.5123H157.808C158.232 24.5123 158.577 24.1673 158.577 23.7433V15.9826C158.577 15.9369 158.598 15.9078 158.615 15.8911C158.64 15.8662 158.673 15.8537 158.706 15.8537C158.735 15.8537 158.76 15.862 158.785 15.8828L167.415 22.5378L169.464 24.1132C169.547 24.1756 169.647 24.2088 169.747 24.2088C170.004 24.2088 170.216 23.9968 170.216 23.7391V10.7658C170.216 10.346 169.876 10.001 169.456 9.99684Z" fill="#070123"/>
<path d="M117.097 31.8573C117.018 31.6994 116.856 31.5996 116.681 31.5996C116.507 31.5996 116.344 31.6994 116.265 31.8573L109.752 44.6352C109.627 44.8763 109.64 45.1548 109.781 45.3835C109.922 45.6121 110.168 45.7493 110.438 45.7493H111.926C112.217 45.7493 112.479 45.5871 112.608 45.3294L116.569 37.5729C116.602 37.5105 116.66 37.5022 116.685 37.5022C116.71 37.5022 116.768 37.5105 116.802 37.5729L120.763 45.3294C120.896 45.5871 121.158 45.7493 121.445 45.7493H122.933C123.203 45.7493 123.448 45.6121 123.59 45.3835C123.731 45.1548 123.739 44.8722 123.619 44.6352L117.101 31.8573H117.097Z" fill="#070123"/>
<path d="M107.774 31.2422H106.286C105.995 31.2422 105.733 31.4001 105.604 31.662L101.643 39.4186C101.609 39.4809 101.551 39.4892 101.526 39.4892C101.501 39.4892 101.443 39.4809 101.41 39.4186L98.5416 33.7944C98.4626 33.6365 98.3005 33.5409 98.1259 33.5409C97.9513 33.5409 97.7892 33.6406 97.7102 33.7944L94.842 39.4186C94.8088 39.4809 94.7506 39.4892 94.7257 39.4892C94.7007 39.4892 94.6425 39.4809 94.6093 39.4186L90.6479 31.662C90.5148 31.4043 90.253 31.2422 89.9662 31.2422H88.478C88.2078 31.2422 87.9626 31.3794 87.8213 31.608C87.6799 31.8366 87.6716 32.1193 87.7922 32.3604L94.31 45.1383C94.389 45.2962 94.5511 45.3918 94.7257 45.3918C94.9002 45.3918 95.0624 45.2921 95.1413 45.1383L98.0095 39.51C98.0428 39.4477 98.101 39.4393 98.1259 39.4393C98.1508 39.4393 98.209 39.4477 98.2423 39.51L101.11 45.1383C101.189 45.2962 101.352 45.3918 101.526 45.3918C101.701 45.3918 101.863 45.2921 101.942 45.1383L108.455 32.3604C108.576 32.1193 108.568 31.8408 108.426 31.608C108.285 31.3794 108.04 31.2422 107.77 31.2422H107.774Z" fill="#070123"/>
<path d="M141.597 38.8738C143.01 38.2253 143.92 36.7954 143.92 35.2407C143.92 34.1849 143.509 33.179 142.756 32.41C142.004 31.6576 141.006 31.2461 139.942 31.2461H131.591C131.167 31.2461 130.822 31.5911 130.822 32.0151V44.9925C130.822 45.4165 131.167 45.7615 131.591 45.7615H132.926C133.35 45.7615 133.695 45.4165 133.695 44.9925V39.3726C133.695 39.3019 133.753 39.2437 133.823 39.2437H136.056C136.879 39.2437 137.627 39.6677 138.059 40.3785L140.599 45.3459C140.732 45.6036 140.994 45.7657 141.281 45.7657H142.769C143.039 45.7657 143.284 45.6285 143.426 45.3999C143.567 45.1713 143.575 44.8886 143.455 44.6517L140.765 39.3268C140.74 39.277 140.753 39.2354 140.765 39.2146C140.782 39.1772 140.819 39.1481 140.861 39.1398C141.114 39.0816 141.364 38.9985 141.597 38.8862V38.8738ZM141.073 35.2407C141.073 35.6814 140.811 36.0846 140.404 36.2592C140.258 36.3298 140.104 36.3672 139.946 36.3672L133.828 36.388C133.757 36.388 133.695 36.3298 133.695 36.255V34.2431C133.695 34.1725 133.753 34.1143 133.823 34.1143H139.942C140.362 34.1143 140.62 34.3096 140.732 34.4302C140.832 34.5299 141.069 34.8126 141.069 35.2449L141.073 35.2407Z" fill="#070123"/>
<path d="M164.434 42.8643H156.594C156.519 42.8643 156.486 42.8144 156.478 42.7895C156.465 42.7687 156.449 42.7105 156.49 42.6523L164.733 31.9943C164.845 31.853 164.862 31.6618 164.783 31.4997C164.704 31.3376 164.542 31.2378 164.363 31.2378H151.44C151.016 31.2378 150.671 31.5828 150.671 32.0068V33.3411C150.671 33.7651 151.016 34.1101 151.44 34.1101H159.242C159.317 34.1101 159.35 34.16 159.359 34.1849C159.371 34.2057 159.388 34.2639 159.346 34.3221L151.103 45.0009C150.995 45.1422 150.974 45.3334 151.053 45.4955C151.132 45.6576 151.294 45.7574 151.473 45.7574L164.438 45.7408C164.862 45.7408 165.203 45.3957 165.203 44.9718V43.6374C165.203 43.2134 164.858 42.8684 164.434 42.8684V42.8643Z" fill="#070123"/>
<defs>
<linearGradient id="paint0_linear_203_12767" x1="43.9169" y1="0.889711" x2="43.9169" y2="58.1991" gradientUnits="userSpaceOnUse">
<stop stop-color="#35D2E2"/>
<stop offset="0.3" stop-color="#3B57EE"/>
<stop offset="0.7" stop-color="#752CE8"/>
<stop offset="1" stop-color="#EC8481"/>
</linearGradient>
<linearGradient id="paint1_linear_203_12767" x1="28.4657" y1="0.889711" x2="28.4657" y2="58.1991" gradientUnits="userSpaceOnUse">
<stop stop-color="#35D2E2"/>
<stop offset="0.3" stop-color="#3B57EE"/>
<stop offset="0.7" stop-color="#752CE8"/>
<stop offset="1" stop-color="#EC8481"/>
</linearGradient>
<linearGradient id="paint2_linear_203_12767" x1="14.366" y1="0.889549" x2="14.366" y2="58.1989" gradientUnits="userSpaceOnUse">
<stop stop-color="#35D2E2"/>
<stop offset="0.3" stop-color="#3B57EE"/>
<stop offset="0.7" stop-color="#752CE8"/>
<stop offset="1" stop-color="#EC8481"/>
</linearGradient>
<linearGradient id="paint3_linear_203_12767" x1="57.9623" y1="0.889549" x2="57.9623" y2="58.1989" gradientUnits="userSpaceOnUse">
<stop stop-color="#35D2E2"/>
<stop offset="0.3" stop-color="#3B57EE"/>
<stop offset="0.7" stop-color="#752CE8"/>
<stop offset="1" stop-color="#EC8481"/>
</linearGradient>
<linearGradient id="paint4_linear_203_12767" x1="36.1721" y1="0.889415" x2="36.1721" y2="58.1988" gradientUnits="userSpaceOnUse">
<stop stop-color="#35D2E2"/>
<stop offset="0.3" stop-color="#3B57EE"/>
<stop offset="0.7" stop-color="#752CE8"/>
<stop offset="1" stop-color="#EC8481"/>
</linearGradient>
<linearGradient id="paint5_linear_203_12767" x1="16.2738" y1="0.889806" x2="16.2738" y2="58.1992" gradientUnits="userSpaceOnUse">
<stop stop-color="#35D2E2"/>
<stop offset="0.3" stop-color="#3B57EE"/>
<stop offset="0.7" stop-color="#752CE8"/>
<stop offset="1" stop-color="#EC8481"/>
</linearGradient>
<linearGradient id="paint6_linear_203_12767" x1="56.112" y1="0.889806" x2="56.112" y2="58.1992" gradientUnits="userSpaceOnUse">
<stop stop-color="#35D2E2"/>
<stop offset="0.3" stop-color="#3B57EE"/>
<stop offset="0.7" stop-color="#752CE8"/>
<stop offset="1" stop-color="#EC8481"/>
</linearGradient>
</defs>
</svg>
