<svg width="16" height="16" viewBox="0 0 16 16" fill="none" xmlns="http://www.w3.org/2000/svg">
<g id="Icons / 16x16 / Arrow Go">
<path id="Vector" d="M2.94378 12.6438C2.86293 12.6163 2.79278 12.5645 2.74316 12.4956C2.69353 12.4267 2.6669 12.3442 2.66699 12.2596C2.66699 10.406 3.04334 8.92351 3.78619 7.8533C4.68331 6.5591 6.09954 5.86331 8.00043 5.7762V3.73859C8.00047 3.65915 8.02409 3.58146 8.06836 3.51517C8.11262 3.44887 8.17559 3.39689 8.24945 3.36567C8.32331 3.33444 8.4048 3.32535 8.48384 3.33951C8.56288 3.35367 8.63597 3.39047 8.69406 3.44534L13.207 7.70614C13.247 7.74402 13.2789 7.78954 13.3007 7.83994C13.3224 7.89034 13.3337 7.94458 13.3337 7.99939C13.3337 8.0542 13.3224 8.10844 13.3007 8.15884C13.2789 8.20924 13.247 8.25475 13.207 8.29264L8.69406 12.5534C8.63597 12.6083 8.56288 12.6451 8.48384 12.6593C8.4048 12.6734 8.32331 12.6643 8.24945 12.6331C8.17559 12.6019 8.11262 12.5499 8.06836 12.4836C8.02409 12.4173 8.00047 12.3396 8.00043 12.2602V10.2366C6.84622 10.2713 5.97482 10.4563 5.28065 10.8112C4.53069 11.1948 3.98695 11.7678 3.40055 12.5101C3.34801 12.5768 3.27576 12.6255 3.19388 12.6495C3.112 12.6736 3.02457 12.6718 2.94378 12.6443V12.6438Z" fill="#3B57EE"/>
</g>
</svg>
