<svg width="24" height="24" viewBox="0 0 24 24" fill="none" xmlns="http://www.w3.org/2000/svg">
<g id="Icons / Sort By">
<path id="Vector" d="M12.0152 6.38437C14.8055 6.38437 17.5959 6.38437 20.3862 6.38437C21.1594 6.3405 21.6697 7.23483 21.2038 7.86293C21.028 8.11513 20.7779 8.23355 20.4781 8.25768C14.8977 8.26791 9.31712 8.26689 3.73642 8.25461C3.04719 8.25461 2.47708 7.83442 2.65202 7.08351C2.70296 6.89563 2.81092 6.72808 2.96108 6.60384C3.11124 6.47961 3.29624 6.40478 3.49071 6.38963C6.33205 6.3791 9.17382 6.38963 12.0152 6.38437Z" fill="white"/>
<path id="Vector_2" d="M9.18179 12.9339C7.3283 12.9339 5.47451 12.9339 3.62043 12.9339C2.99362 12.9339 2.5857 12.5032 2.63142 11.9085C2.65071 11.6955 2.74363 11.496 2.89424 11.3439C3.04485 11.1919 3.24378 11.0968 3.45691 11.0751C7.32815 11.0918 11.2143 11.0049 15.0798 11.108C16.0697 11.383 15.9199 12.9063 14.8526 12.9291C12.9625 12.9418 11.0719 12.9309 9.18179 12.9339Z" fill="white"/>
<path id="Vector_3" d="M6.37505 17.618C5.4379 17.618 4.5012 17.621 3.56449 17.618C3.35398 17.6194 3.14911 17.5501 2.98281 17.4213C2.81651 17.2925 2.69843 17.1117 2.64756 16.9079C2.48932 16.2863 2.99261 15.735 3.6146 15.7482C5.45139 15.7403 7.28832 15.7391 9.1254 15.7447C10.4476 15.7447 10.4441 17.6272 9.11705 17.6193C8.20393 17.6184 7.28993 17.618 6.37505 17.618Z" fill="white"/>
</g>
</svg>
