<svg width="24" height="24" viewBox="0 0 24 24" fill="none" xmlns="http://www.w3.org/2000/svg">
<g id="symbol / usdt" clip-path="url(#clip0_1436_15768)">
<path id="Vector" fill-rule="evenodd" clip-rule="evenodd" d="M4.38215 1.62252L-0.00206191 10.8218C-0.0111985 10.8603 -0.00941981 10.9005 0.0030738 10.938C0.0155674 10.9756 0.0382795 11.0088 0.0686511 11.0341L11.8777 22.4271C11.91 22.4457 11.9466 22.4555 11.9838 22.4555C12.021 22.4555 12.0576 22.4457 12.0899 22.4271L23.9697 11.0341C23.9883 11.0018 23.9981 10.9652 23.9981 10.928C23.9981 10.8907 23.9883 10.8541 23.9697 10.8218L19.5854 1.62252C19.5492 1.58158 19.4985 1.55623 19.444 1.55176L4.52357 1.55176C4.46908 1.55623 4.41841 1.58158 4.38215 1.62252Z" fill="url(#paint0_linear_1436_15768)"/>
<path id="Vector_2" fill-rule="evenodd" clip-rule="evenodd" d="M13.4642 11.9075C12.487 11.9706 11.5067 11.9706 10.5296 11.9075C7.66323 11.7721 5.47934 11.2983 5.47934 10.689C5.47934 10.0798 7.66323 9.53827 10.5296 9.47057V11.366C11.5067 11.4312 12.4871 11.4312 13.4642 11.366V9.47057C16.3988 9.53827 18.5144 10.0798 18.5144 10.689C18.5144 11.2983 16.3988 11.7721 13.4642 11.9075ZM13.4642 9.2675V7.5075H17.4907V4.7998H6.50304V7.5075H10.5296V9.2675C7.25375 9.40288 4.79688 10.0121 4.79688 10.8244C4.79688 11.6367 7.25375 12.246 10.5296 12.3813V17.9998H13.4642V12.3813C16.74 12.246 19.1969 11.569 19.1969 10.8244C19.1969 10.0798 16.74 9.40288 13.4642 9.2675Z" fill="white"/>
</g>
<defs>
<linearGradient id="paint0_linear_1436_15768" x1="-0.00781205" y1="22.4555" x2="22.3541" y2="-0.0795393" gradientUnits="userSpaceOnUse">
<stop stop-color="#FF817D"/>
<stop offset="0.463542" stop-color="#8233FF"/>
<stop offset="0.630208" stop-color="#3857FD"/>
<stop offset="1" stop-color="#22DEF1"/>
</linearGradient>
<clipPath id="clip0_1436_15768">
<rect width="24" height="24" fill="white"/>
</clipPath>
</defs>
</svg>
