<svg width="24" height="24" viewBox="0 0 24 24" fill="none" xmlns="http://www.w3.org/2000/svg">
<g id="Layer_1">
<path id="Vector" d="M17.8959 10.0508H22.9568V14.7163H17.8959C17.2843 14.7163 16.6978 14.4706 16.2653 14.0331C15.8328 13.5956 15.5898 13.0023 15.5898 12.3836C15.5898 11.7649 15.8328 11.1715 16.2653 10.734C16.6978 10.2965 17.2843 10.0508 17.8959 10.0508Z" fill="#3B57EE"/>
<path id="Vector_2" d="M22.956 8.57347V8.99566H17.8951C17.0068 8.99566 16.1548 9.35264 15.5266 9.98807C14.8985 10.6235 14.5456 11.4854 14.5456 12.384C14.5456 13.2827 14.8985 14.1445 15.5266 14.7799C16.1548 15.4153 17.0068 15.7723 17.8951 15.7723H22.956V16.1946C22.956 17.3927 22.4855 18.5419 21.6479 19.3891C20.8104 20.2364 19.6744 20.7124 18.4899 20.7124H5.49863C4.31595 20.7096 3.18266 20.2323 2.34736 19.3854C1.51207 18.5384 1.04297 17.3909 1.04297 16.1946V8.57347C1.04297 7.37711 1.51207 6.22959 2.34736 5.38265C3.18266 4.5357 4.31595 4.05846 5.49863 4.05566H18.4899C19.6744 4.05566 20.8104 4.53166 21.6479 5.37891C22.4855 6.22616 22.956 7.37528 22.956 8.57347Z" fill="#3B57EE"/>
</g>
</svg>
